<?xml version="1.0" encoding="iso-8859-1"?>
<!-- Generator: Adobe Illustrator 19.0.0, SVG Export Plug-In . SVG Version: 6.00 Build 0)  -->
<svg xmlns="http://www.w3.org/2000/svg" xmlns:xlink="http://www.w3.org/1999/xlink" version="1.1" id="Capa_1" x="0px" y="0px" viewBox="0 0 416.43 416.43" style="enable-background:new 0 0 416.43 416.43;" xml:space="preserve" width="512px" height="512px">
<g>
	<g>
		<path d="M408.788,389.166L369.92,316.8c-1.778-3.314-5.902-4.57-9.247-2.782c-3.318,1.782-4.564,5.922-2.779,9.243l33.468,62.31    H18.244L204.803,38.19l103.793,193.263c1.785,3.318,5.919,4.574,9.24,2.782c3.325-1.782,4.57-5.919,2.785-9.243L210.814,20.526    c-2.372-4.427-9.653-4.427-12.025,0L0.816,389.166c-1.14,2.116-1.082,4.673,0.154,6.734c1.236,2.062,3.461,3.325,5.861,3.325    h395.947c2.4,0,4.625-1.263,5.857-3.325S409.928,391.282,408.788,389.166z" fill="#213a7a"/>
	</g>
</g>
<g>
	<g>
		<path d="M261.905,115.652l-51.087-95.123c-2.372-4.427-9.653-4.427-12.025,0l-42.933,79.947c-1.403,2.601-0.969,5.799,1.065,7.936    c2.034,2.14,5.216,2.724,7.881,1.457l27.266-12.967l15.647,49.688c0.635,2.004,2.161,3.608,4.127,4.345    c0.771,0.287,1.58,0.43,2.386,0.43c1.246,0,2.488-0.341,3.581-1.014l41.66-25.658C262.55,122.799,263.619,118.837,261.905,115.652    z M218.112,134.132l-15.374-48.818c-0.591-1.881-1.973-3.42-3.785-4.209c-0.874-0.375-1.802-0.567-2.727-0.567    c-1,0-2.007,0.222-2.935,0.666l-15.561,7.4l27.075-50.415l42.028,78.251L218.112,134.132z" fill="#213a7a"/>
	</g>
</g>
<g>
	<g>
		<rect x="354.99" y="303.655" width="13.653" height="88.747" fill="#213a7a"/>
	</g>
</g>
<g>
	<g>
		<path d="M361.817,139.811c-33.341,0-54.613,67.724-54.613,114.347c0,55.968,29.187,63.147,54.613,63.147    c25.426,0,54.613-7.175,54.613-63.147C416.43,207.535,395.158,139.811,361.817,139.811z M361.817,303.651    c-20.726,0-40.96-3.82-40.96-49.493c0-47.995,21.439-100.693,40.96-100.693c19.521,0,40.96,52.702,40.96,100.693    C402.777,299.832,382.543,303.651,361.817,303.651z" fill="#213a7a"/>
	</g>
</g>
<g>
	<g>
		<path d="M185.436,350.677c-9.841-8.311-22.354-12.892-35.246-12.892c-30.112,0-54.613,24.501-54.613,54.613    c0,3.768,3.055,6.827,6.827,6.827h47.787c3.775,0,6.827-3.062,6.827-6.83c0-3.768-3.055-6.827-6.827-6.827h-40.393    c3.26-19.347,20.132-34.133,40.393-34.133c9.667,0,19.053,3.434,26.433,9.667c2.877,2.437,7.192,2.072,9.619-0.806    C188.675,357.418,188.317,353.111,185.436,350.677z" fill="#213a7a"/>
	</g>
</g>
<g>
	<g>
		<path d="M270.756,353.81c-10.319-10.332-24.04-16.026-38.646-16.026c-16.845,0-32.492,7.598-42.926,20.849    c-2.335,2.963-1.826,7.253,1.133,9.588c1.253,0.986,2.744,1.464,4.219,1.464c2.021,0,4.021-0.894,5.366-2.604    c7.834-9.94,19.576-15.643,32.208-15.643c10.953,0,21.245,4.267,28.979,12.018c2.666,2.673,7.001,2.669,9.653,0.01    C273.415,360.804,273.415,356.48,270.756,353.81z" fill="#213a7a"/>
	</g>
</g>
<g>
	<g>
		<path d="M341.337,337.785c-30.112,0-54.613,24.501-54.613,54.613c0,3.768,3.055,6.827,6.827,6.827h95.573    c3.775,0,6.827-3.055,6.827-6.827C395.95,362.286,371.449,337.785,341.337,337.785z M300.943,385.571    c3.26-19.343,20.132-34.133,40.393-34.133s37.134,14.787,40.393,34.133H300.943z" fill="#213a7a"/>
	</g>
</g>
<g>
	<g>
		<path d="M177.497,351.438c-22.586,0-40.96,18.374-40.96,40.96c0,3.768,3.055,6.827,6.827,6.827h68.267    c3.775,0,6.827-3.055,6.827-6.827C218.457,369.812,200.083,351.438,177.497,351.438z M151.057,385.571    c3.034-11.762,13.742-20.48,26.44-20.48c12.701,0,23.405,8.718,26.44,20.48H151.057z" fill="#213a7a"/>
	</g>
</g>
<g>
	<g>
		<path d="M304.504,359.651c-7.141-5.373-15.654-8.213-24.607-8.213c-22.586,0-40.96,18.374-40.96,40.96    c0,3.768,3.055,6.827,6.827,6.827h41.687c3.775,0,6.823-3.062,6.823-6.83s-3.055-6.827-6.827-6.827h-33.993    c3.034-11.762,13.739-20.48,26.44-20.48c5.973,0,11.643,1.894,16.408,5.475c3.014,2.27,7.294,1.659,9.554-1.352    C308.125,366.197,307.518,361.917,304.504,359.651z" fill="#213a7a"/>
	</g>
</g>
<g>
</g>
<g>
</g>
<g>
</g>
<g>
</g>
<g>
</g>
<g>
</g>
<g>
</g>
<g>
</g>
<g>
</g>
<g>
</g>
<g>
</g>
<g>
</g>
<g>
</g>
<g>
</g>
<g>
</g>
</svg>
